<svg xmlns="http://www.w3.org/2000/svg" width="142" height="44" viewBox="0 0 142 44"><path fill-rule="evenodd" clip-rule="evenodd" d="M15 9v7c6.328.426 4.672-1.762 11-2 .47.698.654 1.136 1 2 2.05 5.125-.17 20.3-6 21 1.517-6.318 4.86-13.284 3-20-5.503-.503-.6 9.4-5 10-4.632-.077-.218-4.532-1-7-2.517-.64-1.398 1.655-2 3-.27.6-1.85 2.512-2 3-.843 2.724.81 6.682-2 8-5.585-3.72 3.134-14.757-1-22-5.596.737-1.5 11.167-8 11 .627-7.758 3.94-16.86 12-14zM49 24c.558-2.442 3.87-2.13 3-6-2.143-1.19-5.587-1.08-7-3-1.958 3.726-1.612 6.076-2 11-.263 3.345-2.694 7.5 1 8 2.294-1.04-.474-7.14 2-8 3.48.52 1.99 6.01 7 5-.016-3.65-2.843-4.49-4-7zm-3-1c-.282-1.615.945-1.722 1-3h2c.282 1.615-.945 1.722-1 3h-2zM56 15h3v5c3.528-.138 4.472-2.862 8-3-.455 3.21-3.892 3.44-6 5 .2 3.8 4.205 3.795 4 8-1.163-.162-1.78.22-2 1-2.69.688-1.933-2.067-3-3-1.907.426-1.81 2.857-5 2-1.516-4.02 2.31-8.202 1-15zM110 17c2.767 2.51-3.815 4.127-5 6 .08 3.747.758 8.092-4 7-2.252-.998 2.162-5.452-1-7-3.857-.19-1.065 6.268-3 8-1.42-.086-2.832-.165-3 1-4.697-2.587-1.577-8.815 0-13 2.465-.132 4.818-.15 6 1 1.917 1.226 1.604-1.9 2-2 2.794-.703 6.264 2.92 8-1zM116 18c1.817 1.183.786 5.214 2 7-4.605-1.27-1.595 5.07-4 6-4.082.305-.534-2.088-1-4-3.23-.895-1.405 3.262-3 4-3.267-3.984 1.105-8.856 2-12 1.583-.083 3.814.48 4-1zM122 19c2.134-.467 1.904 1.43 2 3 1.71.044 2.59-.743 3-2 3.065.982-1.15 2.668-1 4-1.108 3.87 3.535 3.558 1 6-2.09.424-2.647-.686-4-1-1.61.18 1.628 4.753-3 4-.597-2.392-.418-11.416 2-14zM140 20c.155 2.822-2.827 2.506-4 4 .08 4.747.208 9.54-5 9-1.774-1.893-.73-6.604-1-10 .89-.443 1.788-.878 2-2 4.678 1.572 3.322-.83 8-1zm-7 9c.292-.613 2.487-3.85 0-4-.292.613-2.487 3.85 0 4zM80 17c3.74 1.803 5.683-.81 8 2 .022 2.356-1.723 2.944-1 6-.35 3.474 5.085 3.797 2 7-5.308 1.308-2.43-5.57-6-6-2.03.638-.658 4.675-3 5-4.206.002-1.438-8.248-1-10 .415-1.658.814-2.212 1-4zM35 15c1.313.354 1.573 1.76 3 2-.043 5.265 4.622 13.47 0 17-2.427-.573.47-6.47-3-6-3.936-1.602-.348 4.318-3 4-.87 2.908-1.497 1.125-4 1 1.593-6.74 4.5-12.168 7-18z"/></svg>